HIERARCHY
ROOT Pelvis
{
	OFFSET 0.000000 0.000000 0.000000
	CHANNELS 6 Xposition Yposition Zposition Xrotation Yrotation Zrotation
	JOINT LeftUpLeg_virtual
	{
		OFFSET 0.000000 0.000000 0.000000
		CHANNELS 3 Xrotation Yrotation Zrotation
		JOINT LeftUpLeg
		{
			OFFSET 18.735201 -5.666702 -4.541200
			CHANNELS 3 Xrotation Yrotation Zrotation
			JOINT LeftLeg
			{
				OFFSET -0.021200 -31.938179 0.493100
				CHANNELS 3 Xrotation Yrotation Zrotation
				JOINT LeftFoot
				{
					OFFSET 0.021200 -31.938179 -4.336299
					CHANNELS 3 Xrotation Yrotation Zrotation
					JOINT LeftToeBase
					{
						OFFSET 0.943001 -26.722000 15.023500
						CHANNELS 3 Xrotation Yrotation Zrotation
						End Site
						{
							OFFSET 0 0 0
						}
					}
				}
			}
		}
	}
	JOINT RightUpLeg_virtual
	{
		OFFSET 0.000000 0.000000 0.000000
		CHANNELS 3 Xrotation Yrotation Zrotation
		JOINT RightUpLeg
		{
			OFFSET -18.735201 -5.666702 -4.541200
			CHANNELS 3 Xrotation Yrotation Zrotation
			JOINT RightLeg
			{
				OFFSET 0.018946 -31.938133 0.493100
				CHANNELS 3 Xrotation Yrotation Zrotation
				JOINT RightFoot
				{
					OFFSET -0.018946 -31.938126 -4.336299
					CHANNELS 3 Xrotation Yrotation Zrotation
					JOINT RightToeBase
					{
						OFFSET -0.943001 -26.722004 15.023500
						CHANNELS 3 Xrotation Yrotation Zrotation
						End Site
						{
							OFFSET 0 0 0
						}
					}
				}
			}
		}
	}
	JOINT Hips_virtual
	{
		OFFSET 0.000000 0.000000 0.000000
		CHANNELS 3 Xrotation Yrotation Zrotation
		JOINT Hips
		{
			OFFSET -0.000000 -0.000000 -0.000000
			CHANNELS 3 Xrotation Yrotation Zrotation
			JOINT Spine
			{
				OFFSET 0.000000 10.199997 -0.299500
				CHANNELS 3 Xrotation Yrotation Zrotation
				JOINT Spine1
				{
					OFFSET 0.000000 11.900002 -1.516600
					CHANNELS 3 Xrotation Yrotation Zrotation
					JOINT Spine2
					{
						OFFSET 0.000000 13.600006 -2.842500
						CHANNELS 3 Xrotation Yrotation Zrotation
						JOINT Neck_virtual
						{
							OFFSET 0.000000 0.000000 0.000000
							CHANNELS 3 Xrotation Yrotation Zrotation
							JOINT Neck
							{
								OFFSET 0.000000 9.624100 -2.890100
								CHANNELS 3 Xrotation Yrotation Zrotation
								JOINT Head
								{
									OFFSET 0.000000 14.068802 -1.351900
									CHANNELS 3 Xrotation Yrotation Zrotation
									End Site
									{
										OFFSET 0 0 0
									}
								}
							}
						}
						JOINT LeftShoulder_virtual
						{
							OFFSET 0.000000 0.000000 0.000000
							CHANNELS 3 Xrotation Yrotation Zrotation
							JOINT LeftShoulder
							{
								OFFSET 15.263000 10.923401 -0.547700
								CHANNELS 3 Xrotation Yrotation Zrotation
								JOINT LeftArm
								{
									OFFSET 25.438599 -2.830597 -13.032500
									CHANNELS 3 Xrotation Yrotation Zrotation
									JOINT LeftForeArm
									{
										OFFSET 29.960503 0.000000 0.000000
										CHANNELS 3 Xrotation Yrotation Zrotation
										JOINT LeftHand
										{
											OFFSET 27.849251 0.000000 0.000000
											CHANNELS 3 Xrotation Yrotation Zrotation
											End Site
											{
												OFFSET 0 0 0
											}
										}
									}
								}
							}
						}
						JOINT RightShoulder_virtual
						{
							OFFSET 0.000000 0.000000 0.000000
							CHANNELS 3 Xrotation Yrotation Zrotation
							JOINT RightShoulder
							{
								OFFSET -15.263000 10.923401 -0.547700
								CHANNELS 3 Xrotation Yrotation Zrotation
								JOINT RightArm
								{
									OFFSET -25.438599 -2.830597 -13.032500
									CHANNELS 3 Xrotation Yrotation Zrotation
									JOINT RightForeArm
									{
										OFFSET -29.960503 0.000000 0.000000
										CHANNELS 3 Xrotation Yrotation Zrotation
										JOINT RightHand
										{
											OFFSET -27.849251 0.000000 0.000000
											CHANNELS 3 Xrotation Yrotation Zrotation
											End Site
											{
												OFFSET 0 0 0
											}
										}
									}
								}
							}
						}
					}
				}
			}
		}
	}
}
MOTION
Frames: 11
Frame Time: 0.03333333
-4.061271 86.714462 0.893272 0.000000 0.000000 0.000000 -3.327402 -7.432687 5.136881 -67.606838 8.791814 6.785989 52.320455 -1.297141 -3.695940 6.746218 0.488401 2.178001 0.000000 0.000000 0.000000 -3.470259 -6.317454 4.498608 -22.975520 -8.292009 -6.203753 55.276383 10.149925 2.174456 -33.775326 5.200391 -6.760686 0.000000 0.000000 0.000000 -3.744897 -7.415504 5.043037 -0.965235 -0.417704 -0.625641 14.975888 -0.167645 -3.095078 2.665314 0.039678 -1.024738 0.000000 0.000000 0.000000 2.468480 0.167438 -1.070836 1.053454 0.084431 -0.108457 0.000000 0.000000 0.000000 2.837344 0.240461 -1.005037 1.061829 -1.007166 -10.485444 14.350315 -22.723116 -56.318707 0.932931 -32.839847 0.513986 0.000000 0.000000 0.000000 2.921261 0.308232 -1.009541 0.514572 5.503436 16.253552 17.116888 19.744456 44.989274 0.683158 43.259498 -0.369014 0.000000 0.000000 0.000000 
-4.282461 86.468933 0.322414 0.000000 0.000000 0.000000 -2.843998 -7.336731 5.499319 -66.503455 8.020005 4.755877 43.882299 -2.280357 -3.194722 12.090611 0.210471 1.228451 0.000000 0.000000 0.000000 -3.457418 -6.694894 5.084659 -24.154496 -8.807231 -6.851820 56.667498 9.340622 2.692277 -33.431744 4.840062 -7.786983 0.000000 0.000000 0.000000 -3.333363 -7.382471 5.529270 -0.847630 -0.206664 -0.703904 15.165615 -0.103167 -3.203637 2.763606 0.065167 -1.036292 0.000000 0.000000 0.000000 2.519537 0.253698 -1.109624 1.038055 0.059619 -0.142537 0.000000 0.000000 0.000000 3.013281 0.350407 -1.003813 1.032346 -1.313492 -10.359802 14.984564 -23.007217 -56.668795 0.875848 -32.307239 0.366870 0.000000 0.000000 0.000000 3.073025 0.376119 -1.070286 0.471728 6.166136 16.722299 16.722381 20.029309 44.075419 0.761291 44.729908 -0.484702 0.000000 0.000000 0.000000 
-4.532024 86.172668 -0.270950 0.000000 0.000000 0.000000 -2.187899 -7.132243 5.837279 -65.766724 7.053454 2.994476 39.694611 -3.231399 -2.567728 16.624052 0.126487 0.772483 0.000000 0.000000 0.000000 -2.950934 -6.733423 5.719022 -26.475321 -9.252027 -7.355796 58.333053 8.433036 3.224767 -31.968161 4.327015 -8.961523 0.000000 0.000000 0.000000 -2.521875 -7.311737 6.038860 -0.708672 0.023844 -0.785635 15.394866 -0.124216 -3.300952 2.863475 0.103124 -1.050943 0.000000 0.000000 0.000000 2.569953 0.350745 -1.116125 1.049391 0.034298 -0.153992 0.000000 0.000000 0.000000 3.116839 0.466562 -0.997706 0.996373 -1.555433 -10.320256 15.423056 -23.267115 -56.866325 0.886178 -31.492865 0.253060 0.000000 0.000000 0.000000 3.181625 0.456007 -1.111102 0.440746 6.797667 17.107064 16.473622 20.386438 42.983384 0.770610 45.997639 -0.532082 0.000000 0.000000 0.000000 
-4.820755 86.138321 -0.895443 0.000000 0.000000 0.000000 -1.409663 -6.735606 6.077700 -65.359296 6.276872 1.831624 40.270078 -4.044703 -1.970609 16.980344 0.308301 1.103398 0.000000 0.000000 0.000000 -1.999568 -6.402456 6.229322 -28.728185 -9.294905 -7.303697 58.819356 7.587368 3.537372 -29.968258 3.758506 -9.704384 0.000000 0.000000 0.000000 -1.425484 -6.969493 6.463789 -0.564302 0.055637 -0.965626 15.619511 -0.240615 -3.397900 2.968349 0.121299 -1.062550 0.000000 0.000000 0.000000 2.620197 0.399931 -1.088236 1.081865 0.017906 -0.141443 0.000000 0.000000 0.000000 3.143960 0.523332 -0.985096 0.951618 -1.906825 -10.326600 15.798567 -23.868631 -56.652229 0.937134 -30.587404 0.153382 0.000000 0.000000 0.000000 3.249274 0.491101 -1.118638 0.412418 7.345192 17.379275 16.327998 20.634579 41.983267 0.706367 46.756579 -0.531057 0.000000 0.000000 0.000000 
-5.120337 86.478691 -1.390602 0.000000 0.000000 0.000000 -0.439370 -6.024099 6.184693 -64.778791 6.141601 1.509398 43.580664 -4.403572 -1.640487 12.482192 0.727085 2.045678 0.000000 0.000000 0.000000 -0.613393 -5.467516 6.467092 -30.229594 -8.925879 -6.546353 57.145034 6.913080 3.583149 -27.960757 3.133790 -9.673892 0.000000 0.000000 0.000000 -0.170961 -6.226721 6.659810 -0.495111 -0.033321 -1.061353 15.742707 -0.518791 -3.442025 3.066716 0.062080 -1.062647 0.000000 0.000000 0.000000 2.666435 0.337589 -1.038005 1.108109 0.020652 -0.107640 0.000000 0.000000 0.000000 3.142157 0.451165 -0.958260 0.917537 -2.448373 -10.299317 16.305569 -25.097981 -55.913295 1.017232 -30.013381 0.058428 0.000000 0.000000 0.000000 3.283587 0.429060 -1.081948 0.396813 7.772961 17.522058 16.329889 20.506125 41.308643 0.612131 47.114901 -0.538540 0.000000 0.000000 0.000000 
-5.275250 87.218681 -1.784534 0.000000 0.000000 0.000000 0.868755 -4.900618 6.112069 -63.355981 6.702297 1.534992 47.051821 -4.407175 -1.593958 5.789465 1.223516 3.112320 0.000000 0.000000 0.000000 1.201950 -4.002272 6.294064 -31.115012 -8.673241 -5.550470 53.970078 6.367977 3.519457 -26.487600 2.631916 -9.056344 0.000000 0.000000 0.000000 1.200585 -4.979751 6.620053 -0.428246 -0.173094 -0.989703 15.682222 -0.935157 -3.332685 3.147221 -0.109915 -1.042145 0.000000 0.000000 0.000000 2.659974 0.142113 -0.969805 1.105350 0.045007 -0.058115 0.000000 0.000000 0.000000 3.150887 0.217291 -0.914262 0.903851 -3.174502 -10.263785 17.151380 -26.794617 -54.769661 1.086384 -30.052296 -0.035725 0.000000 0.000000 0.000000 3.283385 0.240709 -1.008459 0.394341 8.036192 17.575006 16.564928 19.780334 41.273634 0.556798 47.435124 -0.591698 0.000000 0.000000 0.000000 
-5.276479 87.991287 -2.197227 0.000000 0.000000 0.000000 2.364966 -3.579072 5.838295 -60.849855 7.548962 1.529246 48.554275 -4.156454 -1.834260 2.164596 1.861379 3.520455 0.000000 0.000000 0.000000 3.012825 -2.321044 5.780139 -31.885048 -8.871775 -4.795717 51.132094 5.852982 3.504406 -25.512623 2.284268 -8.338671 0.000000 0.000000 0.000000 2.677367 -3.295515 6.325585 -0.611660 -0.278485 -0.835131 15.442301 -1.430185 -3.011195 3.188243 -0.367095 -0.990766 0.000000 0.000000 0.000000 2.590434 -0.160106 -0.891914 1.067341 0.088040 -0.008886 0.000000 0.000000 0.000000 3.176934 -0.122005 -0.861060 0.924789 -3.943119 -10.205259 18.305879 -28.568441 -53.458009 1.126679 -30.731951 -0.086526 0.000000 0.000000 0.000000 3.259676 -0.055795 -0.910394 0.402776 8.118586 17.590498 17.230738 18.399367 41.869985 0.610000 48.021189 -0.721365 0.000000 0.000000 0.000000 
-5.149422 88.452477 -2.676308 0.000000 0.000000 0.000000 4.046607 -2.095485 5.408756 -57.868873 8.019186 1.131323 47.581898 -3.642805 -2.090826 4.254250 2.908718 2.871401 0.000000 0.000000 0.000000 4.768582 -0.599853 5.141492 -33.095914 -9.188776 -4.300565 50.113648 5.397324 3.444475 -24.944467 2.159541 -7.733646 0.000000 0.000000 0.000000 4.192816 -1.442076 5.869466 -0.944661 -0.288787 -0.655747 15.104478 -1.942294 -2.454483 3.183124 -0.652891 -0.922718 0.000000 0.000000 0.000000 2.485729 -0.487029 -0.815716 0.994905 0.138121 0.031822 0.000000 0.000000 0.000000 3.240936 -0.480478 -0.806880 0.986924 -4.528044 -10.174274 19.296309 -29.891049 -52.492664 1.160820 -31.835894 -0.050599 0.000000 0.000000 0.000000 3.239723 -0.385896 -0.813097 0.420502 8.050075 17.596987 18.304289 16.621313 42.961436 0.793736 48.810270 -0.920144 0.000000 0.000000 0.000000 
-4.938156 88.505661 -3.324928 0.000000 0.000000 0.000000 5.644772 -0.757225 4.980906 -55.118165 7.311859 -0.058988 45.044288 -3.511073 -1.777636 10.394481 3.769149 1.192469 0.000000 0.000000 0.000000 6.431678 0.888550 4.633574 -35.061410 -9.506200 -4.277251 51.224619 4.826271 3.284616 -25.234233 2.429079 -7.543979 0.000000 0.000000 0.000000 5.689090 0.305099 5.378818 -1.256087 -0.317949 -0.501593 14.812923 -2.393662 -1.742882 3.145820 -0.874893 -0.864815 0.000000 0.000000 0.000000 2.378582 -0.736235 -0.750478 0.922808 0.177445 0.054454 0.000000 0.000000 0.000000 3.317019 -0.741053 -0.767141 1.050039 -4.782847 -10.234697 19.531638 -30.387717 -52.180852 1.169738 -32.815787 0.085518 0.000000 0.000000 0.000000 3.246479 -0.657144 -0.739488 0.427806 7.819055 17.616864 19.558414 14.922922 44.336134 1.070849 49.422525 -1.138340 0.000000 0.000000 0.000000 
-4.819124 88.219963 -4.213062 0.000000 0.000000 0.000000 7.056257 0.337459 4.695505 -53.018148 5.338078 -1.667681 41.657211 -3.940998 -1.004529 16.802171 3.849138 -1.257196 0.000000 0.000000 0.000000 7.805580 2.081145 4.392577 -37.608760 -9.629284 -4.786112 53.501763 4.077556 3.135592 -26.152344 2.930958 -7.597765 0.000000 0.000000 0.000000 7.114112 1.625884 4.992096 -1.468004 -0.327434 -0.410383 14.691984 -2.719722 -1.048516 3.090362 -0.950132 -0.833543 0.000000 0.000000 0.000000 2.356707 -0.830668 -0.707300 0.876979 0.192973 0.050303 0.000000 0.000000 0.000000 3.389918 -0.822337 -0.749405 1.095448 -4.670900 -10.367993 18.557421 -30.138695 -52.573435 1.178241 -33.328366 0.322886 0.000000 0.000000 0.000000 3.305281 -0.778689 -0.694043 0.408798 7.502349 17.685313 20.646685 13.772708 45.584440 1.335462 49.264963 -1.298900 0.000000 0.000000 0.000000 
-4.782548 87.935730 -5.167881 0.000000 0.000000 0.000000 8.391406 1.670572 4.625600 -51.683010 3.255329 -3.277837 37.741713 -4.551242 -0.196226 18.359861 3.269842 -3.458545 0.000000 0.000000 0.000000 8.875011 3.065732 4.508145 -40.019448 -9.375567 -5.552966 55.645691 3.374736 2.990899 -26.328622 3.477075 -7.181638 0.000000 0.000000 0.000000 8.370551 2.587990 4.905233 -1.261169 -0.476252 -0.424724 14.808139 -2.844294 -0.536820 3.029992 -0.854297 -0.814228 0.000000 0.000000 0.000000 2.461528 -0.739494 -0.676791 0.884119 0.173650 0.021685 0.000000 0.000000 0.000000 3.449319 -0.718377 -0.738965 1.085251 -4.276648 -10.648856 16.340121 -29.457011 -53.455834 1.206199 -33.333109 0.595357 0.000000 0.000000 0.000000 3.417948 -0.712890 -0.661270 0.356998 7.126117 17.756665 21.208627 13.556972 46.513499 1.477552 47.945257 -1.328814 0.000000 0.000000 0.000000 
